<?xml version="1.0" encoding="utf-8"?>
<!-- Generator: Adobe Illustrator 21.0.0, SVG Export Plug-In . SVG Version: 6.00 Build 0)  -->
<svg version="1.1" id="Laag_1" xmlns="http://www.w3.org/2000/svg" xmlns:xlink="http://www.w3.org/1999/xlink" x="0px" y="0px"
	 viewBox="0 0 269.3 269.3" style="enable-background:new 0 0 269.3 269.3;" xml:space="preserve">
<style type="text/css">
	.st0{fill:#9AC8DE;}
	.st1{fill:#FFFFFF;}
	.st2{fill:#005DA6;}
	.st3{fill-rule:evenodd;clip-rule:evenodd;fill:#005DA6;}
	.st4{display:none;fill:#005DA6;}
	.st5{fill:#F3F3F3;}
</style>
<circle class="st0" cx="135" cy="134.7" r="130.3"/>
<circle class="st1" cx="135" cy="134.7" r="123"/>
<g>
	<g>
		<path class="st2" d="M91.1,154.1l4.5-1.4c0.3-0.1,0.3-0.7,0.4-1.6c0.3-3.5,1.2-6.7,2.3-9.6c-0.5,0.5-1.1,0.9-1.6,1.4
			C93.8,145.9,91.8,149.8,91.1,154.1z"/>
		<path class="st2" d="M78.9,148.9l-0.8,0.7c-0.4,0.3-0.4,0.4-0.9,0.7c-2.9,2.9-5.1,6.4-6.3,10.7c-1,3.3-2.1,10.4-0.9,14.4
			c0.7-4.1,1.9-7.1,3.6-10.1c1-1.8,5.7-6.8,9.2-8.5c1.9-0.9,3.1-1.3,5.4-1.9l1-0.2c0.6-4.9,2.7-9.5,6.2-13.2
			c1.3-1.4,2.8-2.5,4.4-3.6c13.8-26.5,59.9-26.6,72.6,0c0.7,0.5,1.4,1,2.1,1.6c4.3,4.1,6.8,9.6,7.2,15.5l1.8,0.4
			c2.2,0.4,3.6,1,5.5,1.8c0.2,0.1,0.6,0.3,0.8,0.4c0.1,0,0.3,0.2,0.3,0.2c3.4,1.9,7.1,6.1,8.1,7.9c1.7,3,2.9,6.1,3.6,10.1
			c1.2-4,0.1-11-0.9-14.4c-1.3-4.3-3.5-7.9-6.3-10.7c-0.5-0.3-0.5-0.4-0.9-0.7l-0.8-0.7c0-0.1-0.1-0.1-0.2-0.2
			c-0.9-0.9-2.1-1.6-3.3-2.4c-1.4-0.8-3.2-1.4-3.9-2.2c3.5,0.4,5.6,1.4,8.6,2.4c0.5,0.3,0.9,0.3,1.8,0.9c2.5,1.1,4.5,3.1,5.8,4.8
			c1.5,2,2.9,3.8,5,5.4c5.3,3.9,13.1,4.1,15.4,0.2c-16.8-3.2-9.4-13.2-20.6-22.2c-0.6-0.4-0.4-0.3-0.9-0.7c-0.2-0.1-0.3-0.2-0.5-0.3
			c-0.5-0.3-0.4-0.3-0.7-0.5c-4.1-2.5-6.1-2.4-10.4-4c2-0.2,3.9-0.1,6,0.1c4.8,0.5,8,2.6,8,2.6c1.8,0.9,3.5,3.2,5.8,4.5
			c4.3,2.4,11.9,4,15.1-0.5c1.5-2.1,1.7-5.8,0.9-8c-0.6,0.7-1,1.8-1.5,2.6c-1.7,2.5-4.4,4.6-7.9,3.9c-3-0.6-8.8-5.3-10.4-7l-1.6-1.4
			c-1.5-1.3-3-2.7-4.5-4l-4.7-3.9c2,0.2,3.9,0.2,6,0.5c2.2,0.3,5.7,1.1,6.2,1.3s1.2,0.6,1.7,0.7c0,0,0-0.2-1-1.4
			c-1-1.2-3.1-3.3-7.3-5.9c-6.8-4-14.5-5.6-22.4-5.4c-4.9,0.2-7.9,1-10.5,1.2c1.5-4.1,8.8-2.5,15.4-6.5c3.9-2.3,9.6-6.1,10.8-13.5
			c-1.7,0.9-3,2.3-5.2,3.3c-4.5,2.3-8.4,2.2-13.4,2.3c-2.7,0-4.4,0.6-6.6,1.2c1.4-1.8,8.9-7.1,11.4-14c1.8-5-1.3-16-3.2-19
			c-1.5,13.8-5.2,17-16.1,21.4c-1.7,0.7-3.1,1.4-4.8,2.2c-5,2.3-5.5,3.5-8.1,6.7c0.2-3.2,1.4-6.1,2.9-8.6
			c6.3-10.4,7.8-11.3,0.7-26.6c-0.5,36.8-33,0.3-25.5,34.8c-2.6-3.2-3-4.4-8.1-6.7c-1.7-0.8-3.1-1.5-4.8-2.2
			C101.2,81,97.5,77.8,96,64c-2,3-5.1,14-3.2,19c2.5,6.9,10.1,12.2,11.4,14c-2.1-0.6-3.9-1.2-6.6-1.2c-5-0.1-8.9,0-13.4-2.3
			c-2.1-1.1-3.4-2.4-5.2-3.3c1.1,7.3,6.9,11.1,10.8,13.5c6.6,3.9,13.9,2.4,15.4,6.5c-2.6-0.1-5.6-1-10.5-1.2
			c-7.9-0.2-15.6,1.4-22.4,5.4c-4.3,2.5-5.9,4.2-7.3,5.9l-1,1.4c0.8-0.1,2.6-1.3,7.9-2c2.1-0.3,4-0.3,6-0.5l-4.7,3.9
			c-1.5,1.4-3,2.8-4.5,4l-1.6,1.4c-1.6,1.7-7.4,6.4-10.4,7c-3.5,0.7-6.2-1.4-7.9-3.9c-0.5-0.8-0.9-1.9-1.5-2.6
			c-0.8,2.2-0.6,5.9,0.9,8c3.2,4.5,10.9,3,15.1,0.5c2.2-1.3,4.6-3.9,5.8-4.5c0,0,0.3-0.2,2-0.9c1.7-0.7,4.6-1.5,6-1.7
			c2.1-0.3,4-0.3,6-0.1c-4.3,1.7-6.6,1.6-10.6,4.1c-0.7,0.4-1.4,1-1.9,1.4c-10.8,8.2-3.8,19-20.6,22.2c2.4,3.8,10.1,3.7,15.4-0.2
			c2.2-1.6,3.6-3.4,5-5.4c1.3-1.7,3.7-3.9,5.9-5c0.7-0.4,1-0.4,1.6-0.6c3-0.9,5.2-2,8.6-2.4c-0.7,0.7-2.6,1.3-3.9,2.2"/>
	</g>
	<path class="st3" d="M124.3,187.3c1.1,1.3,2.2,2.3,3.4,3c2.5,1.6,5.2,2.2,7.8,2c2.6-0.2,5-1.1,7-2.8c0.9-0.7,1.7-1.6,2.3-2.6
		c1.4-1.8,4,0.5,3.2,2c-0.8,1.3-1.9,2.5-3.1,3.5c-2.6,2.2-5.8,3.4-9.2,3.7c-3.4,0.2-6.9-0.6-10.1-2.6c-1.6-1-3-2.2-4.3-3.8
		C120.4,187.9,123.1,186.5,124.3,187.3z"/>
	<path class="st2" d="M120.8,156.7c-0.4-0.4-1-0.6-1.6-0.6H115v-4.2c0-0.6-0.2-1.1-0.6-1.6c-0.8-0.8-2.3-0.8-3.1,0
		c-0.4,0.4-0.6,1-0.6,1.6v4.2h-4.2c-0.6,0-1.1,0.2-1.6,0.6c-0.4,0.4-0.6,1-0.6,1.6c0,0.6,0.2,1.1,0.6,1.6c0.4,0.4,1,0.6,1.6,0.6h4.2
		v4.2c0,0.6,0.2,1.1,0.6,1.6c0.4,0.4,1,0.6,1.6,0.6c0.6,0,1.1-0.2,1.6-0.6c0.4-0.4,0.6-1,0.6-1.6v-4.2h4.2c0.6,0,1.1-0.2,1.6-0.6
		c0.4-0.4,0.6-1,0.6-1.6C121.4,157.7,121.2,157.1,120.8,156.7z"/>
	<path class="st3" d="M162.4,160.6h-8.5c-1.3,0-2.3-0.3-3-0.9c-0.7-0.6-1-1.4-1-2.4c0-1,0.3-1.8,1-2.4c0.7-0.6,1.7-0.9,3-0.9h8.5
		c1.3,0,2.3,0.3,3,0.9c0.7,0.6,1,1.4,1,2.4c0,1-0.3,1.7-1,2.4C164.7,160.3,163.7,160.6,162.4,160.6z"/>
	<path class="st3" d="M220.3,68.4c1.3-1.1,0.9-2.7-0.1-3.8l-3.6-4.3l-3.7,3.1l3.6,4.3C217.6,68.8,219.1,69.5,220.3,68.4z"/>
	<path class="st3" d="M179.4,49.9c3.9,2.1,8.1,0.4,10-3.3c2-3.8,1-8.1-2.9-10.2c-3.9-2.1-8.1-0.4-10,3.3
		C174.6,43.5,175.5,47.9,179.4,49.9z"/>
	<path class="st3" d="M223.7,45.2C201,22.5,169.7,8.4,135,8.4c-34.7,0-66,14-88.7,36.8C23.6,67.9,9.5,99.3,9.5,133.9
		c0,34.7,14,66,36.8,88.7c22.7,22.7,54.1,36.8,88.7,36.8c34.7,0,66-14,88.7-36.8c22.7-22.7,36.8-54.1,36.8-88.7
		C260.5,99.3,246.5,67.9,223.7,45.2z M227.3,60.4c4.6,5.4,3.5,11.4-0.9,15.1c-4,3.4-8.1,2.9-10.6,1.8l-4.7,11.2l-6.8-8l4.6-9.4
		l-2.2-2.6l-7.3,6.2l-6-7L216.8,48L227.3,60.4z M168.2,35.4c4.4-8.3,13.8-10.6,22.2-6.2c8.3,4.4,11.8,13.5,7.4,21.8
		c-4.4,8.3-13.8,10.6-22.2,6.2S163.9,43.7,168.2,35.4z M152.8,17.2l9.1,1.7l-5.8,30l-9.1-1.8L152.8,17.2z M116.5,17.3l12.2,13.2
		l-1.6-14.4l9.2-1.1l3.5,30.4l-8.8,1l-13-14.1l1.8,15.4l-9.2,1.1l-3.5-30.4L116.5,17.3z M70.5,35l8.9,15.2c1.5,2.5,4.3,3.6,7.6,1.7
		c3.2-1.9,3.7-4.9,2.2-7.4l-8.9-15.3l8.1-4.7L97.5,40c3.8,6.6,2.5,13.7-6.4,18.9c-8.9,5.2-15.8,2.8-19.6-3.7l-9.1-15.5L70.5,35z
		 M49.5,52.2l15.2,12.4c6.1,5,5.9,10.9,1.4,16.4c-1.9,2.3-4.4,4.3-7.3,5l-3.1-7.4c1.2-0.3,2.6-1,3.6-2.2c1.3-1.5,1.2-3.4-0.5-4.8
		L43.7,59.4L49.5,52.2z M35.3,197.4l-10.3-20.7l27.3-13.6l10.3,20.7l-7.2,3.6L49.1,175l-2.7,1.3l6.1,12.1l-7.2,3.6l-6.1-12.1l-3,1.5
		l6.2,12.4L35.3,197.4z M43.6,208.2L66.6,188l6.1,7l-22.9,20.1L43.6,208.2z M77.8,236.9l-1.4-19L68.3,231l-7.8-4.9l16.1-25.9l8.1,5
		l1.4,17.8l7.6-12.2l7.8,4.9l-16.1,25.9L77.8,236.9z M127.7,242.2c-1.3,6.6-7,9.5-15,7.9c-6.4-1.3-10.4-4-13-7.5l6.1-5.8
		c1.8,2.6,4.9,5,8.9,5.8c1.7,0.3,3.4,0.2,3.6-1c0.6-2.9-16.7-3.3-14.4-15.1c1-5.1,6.2-9.1,14.4-7.5c4.9,1,9,3.2,11.9,6.7l-6.1,5.5
		c-2.2-2.5-5.4-4.2-8.2-4.7c-1.8-0.3-2.4,0.1-2.6,0.9C112.8,230.2,129.9,231.1,127.7,242.2z M154.2,250.2l-9.2,1.1l-2.8-22.3l-8.1,1
		l-1-8l25.3-3.2l1,8l-8.1,1L154.2,250.2z M176,244.9l-13.2-27.5l20.9-10l3.5,7.3l-12.5,6l1.3,2.7l12.2-5.9l3.5,7.3l-12.2,5.9l1.4,3
		l12.5-6l3.5,7.3L176,244.9z M207.9,226.5l-19.8-23.2l7-6l19.8,23.2L207.9,226.5z M237.1,192.8l-19.1,1.1l13,8.4l-5,7.8l-25.7-16.5
		l5.2-8l17.9-1.1l-12.2-7.8l5-7.8l25.7,16.6L237.1,192.8z M239.2,133.9l-7.2,8l1.7-10.6l-6.3-0.4c0.3,2.7-0.3,5.8-1.7,7.8
		c-2.5,3.5-6.8,4.3-11,3.7c-0.3,3-0.8,5.9-1.5,8.8c2.1,3,5.6,4.2,9.2,4.9l3.3,0.6l-1.8,2.9c-2.8,4.5-9.1,4.6-14.1,2.8
		c-1.6,4.1-3.4,8-5.6,11.8c-0.1,0.8-0.2,1.7-0.4,2.4l-2.9,9.5l-0.9-5.4c-2.5,3.5-5.3,6.9-8.4,10c-14.5,14.5-34.5,23.5-56.7,23.5
		c-22.1,0-42.2-9-56.7-23.5c-2.5-2.5-4.8-5.3-7-8.2l-0.5,3.2l-2-6.6c-3.5-5.1-6.3-10.7-8.6-16.6c-4.7,1.2-9.9,0.8-12.5-3.3l-1.8-2.9
		l3.3-0.6c2.9-0.5,5.7-1.4,7.8-3.2c-0.8-3.4-1.5-6.8-1.8-10.4c-3.6,0.2-7.1-0.8-9.3-3.8c-1.4-1.9-1.9-4.8-1.7-7.4l-6.5,0.4l1.7,10.6
		l-7.2-8l-7.2,8l1.7-10.6L16,130.6l9.4-5.3l-6.1-8.8l10,4l3.1-10.3l3.1,10.3l10-4l-6.1,8.8l5.6,3.2c0-0.1,0-0.3,0.1-0.4l1.3-3.5
		l2.6,2.8c0.9,1,1.1,1.9,1.8,2.9c1.1,1.6,2.6,2.9,4.5,2.9c0.2-21.8,9.1-41.6,23.4-55.9c4.2-4.2,9-7.9,14-11.1
		c0.5-1.3,1.1-2.5,1.6-3.4l3.6-5.5l0.6,5.5c11-5.7,23.5-9,36.8-9c4.5,0,8.8,0.5,13.1,1.2l0.1-5.8l2.9,6.2c8,1.6,15.5,4.4,22.4,8.2
		l0.6-6l3.6,5.5c0.7,1.1,1.4,2.6,2,4.2c4.3,2.9,8.3,6.2,12,9.9c14.4,14.4,23.3,34.2,23.4,56c0.2,0.1,0.5,0.2,0.6,0.3
		c2.4,0.5,4.3-1,5.5-2.9c0.7-1,0.8-1.9,1.8-2.9l2.6-2.8l1.3,3.5l5.5-3.1l-6.1-8.8l10,4l3.1-10.3l3.1,10.3l10-4l-6.1,8.8l9.4,5.3
		l-10.7,0.7l1.7,10.6L239.2,133.9z"/>
	<path class="st3" d="M142.6,141.6c-3,3.2-5,7.1-5.7,11.4l-0.1,0.8l-1,0c-0.4,0-0.8,0-1.1,0.1l-0.8,0.1l-0.2-0.8
		c-0.9-4.3-3.1-8.1-6.3-11.2c-4-3.8-9.3-6-14.9-6l-0.6,0c-5.8,0.1-11.2,2.5-15.2,6.7c-4,4.2-6.1,9.7-6,15.5
		c0.1,5.8,2.5,11.2,6.7,15.2c4,3.8,9.3,6,14.9,6l0.6,0c5.4-0.1,10.5-2.2,14.4-5.9c3.3-3.2,5.6-7.2,6.4-11.7l0.1-0.6l0.6-0.1
		c0.5-0.1,1-0.2,1.5-0.2l0.7,0l0.6,0.7c1,4.4,3.3,8.3,6.7,11.3c4,3.5,9.1,5.5,14.4,5.5l0.6,0c5.8-0.1,11.2-2.5,15.2-6.7
		c4-4.2,6.1-9.6,6-15.4l0-0.1c-0.1-5.8-2.5-11.2-6.7-15.2c-4-3.8-9.3-6-14.9-6l-0.8,0C151.8,135.1,146.5,137.5,142.6,141.6z
		 M127.2,158.7c-0.3,3.8-1.9,7.2-4.6,9.7c-2.6,2.5-6.1,3.9-9.7,4l-0.4,0c-3.8,0-7.4-1.4-10.1-4.1c-2.8-2.7-4.5-6.4-4.6-10.3
		c-0.1-3.9,1.3-7.7,4.1-10.5c2.7-2.8,6.4-4.5,10.3-4.6l0.4,0c3.8,0,7.4,1.4,10.1,4.1c2.8,2.7,4.5,6.4,4.6,10.3c0,0.2,0,0.5,0,0.7
		L127.2,158.7z M158.8,141.8L158.8,141.8c3.6,0.1,7,1.6,9.7,4.1c2.8,2.7,4.4,6.3,4.6,10.2l0,0.9l0,0c-0.1,3.7-1.6,7.1-4.1,9.7
		c-2.7,2.8-6.4,4.5-10.3,4.6l-0.4,0c-3.6,0-7.1-1.3-9.8-3.7c-2.8-2.5-4.5-5.9-4.9-9.6l-0.1-1h0c-0.1-4,1.3-7.7,4.1-10.5
		c2.7-2.8,6.3-4.4,10.2-4.6L158.8,141.8z"/>
	<path class="st4" d="M228.2,40.7c-24.9-24.9-58-38.6-93.2-38.6c-35.2,0-68.3,13.7-93.2,38.6c-24.9,24.9-38.6,58-38.6,93.2
		c0,35.2,13.7,68.3,38.6,93.2c24.9,24.9,58,38.6,93.2,38.6c35.2,0,68.3-13.7,93.2-38.6c24.9-24.9,38.6-58,38.6-93.2
		C266.8,98.7,253.1,65.6,228.2,40.7z M225.7,224.6c-24.2,24.2-56.4,37.6-90.7,37.6c-34.3,0-66.5-13.3-90.7-37.6
		c-24.2-24.2-37.6-56.4-37.6-90.7c0-34.3,13.3-66.5,37.6-90.7C68.5,19,100.7,5.7,135,5.7c34.3,0,66.5,13.3,90.7,37.6
		c24.2,24.2,37.6,56.4,37.6,90.7C263.3,168.2,249.9,200.4,225.7,224.6z"/>
</g>
<g>
	<path class="st5" d="M240.5,173c-1.3,0-2.5-0.2-3.6-0.7c-1.1-0.5-2.1-1.1-3-2c-0.8-0.9-1.5-1.9-2-3.1c-0.5-1.2-0.7-2.5-0.7-4
		c0-1.5,0.2-2.8,0.7-4c0.5-1.2,1.2-2.2,2-3.1c0.8-0.9,1.8-1.5,3-2c1.1-0.5,2.3-0.7,3.6-0.7c1.3,0,2.5,0.2,3.6,0.7
		c1.1,0.5,2.1,1.1,3,2c0.8,0.9,1.5,1.9,2,3.1c0.5,1.2,0.7,2.5,0.7,4c0,1.5-0.2,2.8-0.7,4c-0.5,1.2-1.2,2.2-2,3.1
		c-0.8,0.9-1.8,1.5-3,2C243,172.7,241.8,173,240.5,173z M240.5,171.1c1,0,2-0.2,2.9-0.6c0.9-0.4,1.7-0.9,2.4-1.6
		c0.7-0.7,1.2-1.5,1.6-2.5c0.4-1,0.6-2.1,0.6-3.2c0-1.2-0.2-2.2-0.6-3.2c-0.4-1-0.9-1.8-1.6-2.5c-0.7-0.7-1.4-1.3-2.4-1.7
		c-0.9-0.4-1.9-0.6-2.9-0.6c-1.1,0-2,0.2-2.9,0.6c-0.9,0.4-1.7,1-2.3,1.7c-0.6,0.7-1.2,1.6-1.5,2.5c-0.4,1-0.6,2-0.6,3.2
		c0,1.2,0.2,2.3,0.6,3.2c0.4,1,0.9,1.8,1.5,2.5c0.6,0.7,1.4,1.2,2.3,1.6C238.5,170.9,239.5,171.1,240.5,171.1z M237,158h3.8
		c1.1,0,2,0.2,2.7,0.7c0.8,0.5,1.1,1.3,1.1,2.5c0,0.6-0.2,1.1-0.5,1.7c-0.3,0.5-0.8,0.9-1.3,1.1l2.3,4.1h-2.3l-1.7-3.5h-2v3.5h-2
		V158z M240.3,163c1.4,0,2.1-0.6,2.1-1.7c0-0.5-0.1-0.9-0.4-1.2c-0.3-0.3-0.8-0.4-1.6-0.4H239v3.3H240.3z"/>
</g>
</svg>
